<?xml version="1.0" encoding="utf-8"?>
<!-- Generator: Adobe Illustrator 19.0.0, SVG Export Plug-In . SVG Version: 6.00 Build 0)  -->
<svg version="1.1" id="Capa_1" xmlns="http://www.w3.org/2000/svg" xmlns:xlink="http://www.w3.org/1999/xlink" x="0px" y="0px"
	 width="112.2px" height="112.2px" viewBox="-63 64.8 112.2 112.2" style="enable-background:new -63 64.8 112.2 112.2;"
	 xml:space="preserve">
<path opacity=".25" d="M-6.9,64.8c-31,0-56.1,25.1-56.1,56.1c0,31,25.1,56.1,56.1,56.1c31,0,56.1-25.1,56.1-56.1C49.2,89.9,24.1,64.8-6.9,64.8z
	 M8.6,99.1H0.4c-1.3,0-3.2,0.7-3.2,3.5v7.6H8.5l-1.3,12.9h-10v36.7H-18v-36.7h-7.2v-12.9h7.2v-8.3c0-6,2.8-15.3,15.3-15.3l11.2,0
	V99.1z"/>
</svg>
