<?xml version="1.0" encoding="utf-8"?>
<!-- Generator: Adobe Illustrator 19.0.0, SVG Export Plug-In . SVG Version: 6.00 Build 0)  -->
<svg version="1.1" id="Capa_1" xmlns="http://www.w3.org/2000/svg" xmlns:xlink="http://www.w3.org/1999/xlink" x="0px" y="0px"
	 width="112.2px" height="112.2px" viewBox="-63 64.8 112.2 112.2" style="enable-background:new -63 64.8 112.2 112.2;"
	 xml:space="preserve">
<path opacity=".25" d="M-6.9,64.8c-31,0-56.1,25.1-56.1,56.1S-37.9,177-6.9,177c31,0,56.1-25.1,56.1-56.1S24.1,64.8-6.9,64.8z M-2.9,138.6
	c-5.7,7.4-16.3,9.5-24.9,6.6c-9.1-3-15.8-12.2-15.6-21.9c-0.5-11.9,10-22.9,21.9-23.1c6.1-0.5,12,1.8,16.6,5.7
	c-1.9,2.1-3.8,4.1-5.9,6.1c-4.1-2.5-8.9-4.3-13.7-2.7c-7.6,2.2-12.3,11.2-9.4,18.7c2.3,7.8,11.8,12.1,19.3,8.8
	c3.9-1.4,6.4-4.9,7.5-8.8c-4.4-0.1-8.8,0-13.3-0.2c0-2.6,0-5.2,0-7.9c7.4,0,14.7,0,22.1,0C2.2,126.6,1.2,133.5-2.9,138.6z
	 M29.3,126.7c-2.2,0-4.4,0-6.6,0c0,2.2,0,4.4,0,6.6c-2.2,0-4.4,0-6.6,0c0-2.2,0-4.4,0-6.6c-2.2,0-4.4,0-6.6,0c0-2.2,0-4.4,0-6.6
	c2.2,0,4.4,0,6.6,0c0-2.2,0-4.4,0.1-6.6c2.2,0,4.4,0,6.6,0c0,2.2,0,4.4,0,6.6c2.2,0,4.4,0,6.6,0C29.3,122.3,29.3,124.5,29.3,126.7z"
	/>
</svg>
