<?xml version="1.0" encoding="utf-8"?>
<!-- Generator: Adobe Illustrator 19.0.0, SVG Export Plug-In . SVG Version: 6.00 Build 0)  -->
<svg version="1.1" id="Capa_1" xmlns="http://www.w3.org/2000/svg" xmlns:xlink="http://www.w3.org/1999/xlink" x="0px" y="0px"
	 width="112.2px" height="112.2px" viewBox="-63 64.8 112.2 112.2" style="enable-background:new -63 64.8 112.2 112.2;"
	 xml:space="preserve">
<path opacity=".25" d="M-6.9,64.8c-31,0-56.1,25.1-56.1,56.1S-37.9,177-6.9,177s56.1-25.1,56.1-56.1S24.1,64.8-6.9,64.8z M-31.4,134.5
	c0,2-1.7,3.7-3.7,3.7h-14h-0.1h-0.2c-2,0-3.7-1.7-3.7-3.7V107c0-2,1.7-3.7,3.7-3.7h0.3c2,0,3.7,1.7,3.7,3.7v23.5h10.3
	c2,0,3.7,1.7,3.7,3.7V134.5z M-20.7,134.5c0,2-1.7,3.7-3.7,3.7h-0.3c-2,0-3.7-1.7-3.7-3.7V107c0-2,1.7-3.7,3.7-3.7h0.3
	c2,0,3.7,1.7,3.7,3.7V134.5z M12.9,134.5c0,1-0.4,1.9-1.1,2.6l0,0c-0.2,0.3-0.5,0.5-0.9,0.7c-0.5,0.3-1.1,0.4-1.7,0.4H8.8
	c-0.5,0-1-0.1-1.4-0.3c-0.6-0.2-1.1-0.6-1.4-1.1l0,0c-0.1-0.1-0.2-0.2-0.3-0.4l-13.5-18.4v16.4c0,2-1.7,3.7-3.7,3.7h-0.3
	c-2,0-3.7-1.7-3.7-3.7V107c0-2,1.7-3.7,3.7-3.7h0.3c1.4,0,2.6,0.8,3.2,1.9l13.4,18V107c0-2,1.7-3.7,3.7-3.7h0.3c2,0,3.7,1.7,3.7,3.7
	V134.5z M35.6,117c2,0,3.7,1.7,3.7,3.7v0.3c0,2-1.7,3.7-3.7,3.7H25.3v5.9h10.3c2,0,3.7,1.7,3.7,3.7v0.3c0,2-1.7,3.7-3.7,3.7h-14
	h-0.1h-0.2c-2,0-3.7-1.7-3.7-3.7v-27.5c0-2,1.7-3.7,3.7-3.7h0.2h0.1h14c2,0,3.7,1.7,3.7,3.7v0.3c0,2-1.7,3.7-3.7,3.7H25.3v5.9H35.6z
	"/>
</svg>
